<svg width="18" height="16" viewBox="0 0 18 16" fill="none" xmlns="http://www.w3.org/2000/svg">
<path d="M13.4987 14.0714C13.4987 14.423 13.2075 14.7143 12.8559 14.7143C12.5043 14.7143 12.213 14.423 12.213 14.0714C12.213 13.7199 12.5043 13.4286 12.8559 13.4286C13.2075 13.4286 13.4987 13.7199 13.4987 14.0714ZM16.0702 14.0714C16.0702 14.423 15.7789 14.7143 15.4273 14.7143C15.0758 14.7143 14.7845 14.423 14.7845 14.0714C14.7845 13.7199 15.0758 13.4286 15.4273 13.4286C15.7789 13.4286 16.0702 13.7199 16.0702 14.0714ZM17.3559 11.8214C17.3559 11.2891 16.924 10.8571 16.3916 10.8571H11.7309L10.3648 12.2232C9.99316 12.5848 9.51102 12.7857 8.99874 12.7857C8.48647 12.7857 8.00432 12.5848 7.63267 12.2232L6.27665 10.8571H1.60589C1.07352 10.8571 0.641602 11.2891 0.641602 11.8214V15.0357C0.641602 15.5681 1.07352 16 1.60589 16H16.3916C16.924 16 17.3559 15.5681 17.3559 15.0357V11.8214ZM14.0914 6.10603C13.9909 5.875 13.7599 5.71429 13.4987 5.71429H10.9273V1.21429C10.9273 0.862723 10.636 0.571427 10.2845 0.571427H7.71303C7.36147 0.571427 7.07017 0.862723 7.07017 1.21429V5.71429H4.49874C4.23758 5.71429 4.00656 5.875 3.90611 6.10603C3.80566 6.3471 3.85589 6.62835 4.04674 6.80915L8.54674 11.3092C8.66727 11.4397 8.83803 11.5 8.99874 11.5C9.15946 11.5 9.33022 11.4397 9.45075 11.3092L13.9508 6.80915C14.1416 6.62835 14.1918 6.3471 14.0914 6.10603Z" fill="black"/>
</svg>
