<?xml version="1.0" encoding="utf-8"?>
<!-- Generator: Adobe Illustrator 22.0.1, SVG Export Plug-In . SVG Version: 6.00 Build 0)  -->
<svg version="1.1" id="Слой_2" xmlns="http://www.w3.org/2000/svg" xmlns:xlink="http://www.w3.org/1999/xlink" x="0px" y="0px"
	 viewBox="0 0 512 512" style="enable-background:new 0 0 512 512;" xml:space="preserve">
<g>
	<path d="M259,20L259,20L259,20 M256,22.2l220.6,155.6h-30.8c-20,0-36.2,15.9-36.2,35.5V491H102.4V213.2c0-19.6-16.2-35.5-36.2-35.5
		H35.4L256,22.2 M256,0c-3.2,0-6.4,0.9-9.1,2.8L6.2,172.7c-11.8,8.3-5.6,26.1,9.1,26.1h50.9c8.4,0,15.2,6.5,15.2,14.5v284.3
		c0,8,6.8,14.5,15.2,14.5h318.8c8.4,0,15.2-6.5,15.2-14.5V213.2c0-8,6.8-14.5,15.2-14.5h50.9c14.7,0,20.8-17.8,9.1-26.1L265.1,2.8
		C262.4,0.9,259.2,0,256,0L256,0z"/>
</g>
</svg>
