<svg width="0" height="0" display="none">
  <symbol xmlns="http://www.w3.org/2000/svg" viewBox="0 0 64 64" id="home">
    <path data-name="layer1"
          d="M54 26.267l7.555 7.3a.25.25 0 0 1-.174.43H54V62H40V44H24v18H10V34H2.618a.25.25 0 0 1-.174-.43L32 5l13 12.567V12h9z"
          stroke-linecap="round" stroke-miterlimit="10"
          stroke-linejoin="round"></path>
  </symbol>
  <symbol xmlns="http://www.w3.org/2000/svg" viewBox="0 0 64 64" id="node">
    <ellipse fill-opacity="0" ry="18" rx="18" cy="32" cx="32" stroke-opacity="null" />
  </symbol>

  <symbol xmlns="http://www.w3.org/2000/svg" viewBox="0 0 64 64" id="branch">
    <ellipse fill-opacity="0" ry="7.423099" rx="7.398055" cy="16.854149" cx="31.999999" stroke-opacity="null" />
    <g transform="rotate(37.56938934326172 17.08741188049316,36.304168701171875) ">
      <ellipse transform="rotate(0.1952008455991745 17.087413787840156,46.189189910888494) " fill-opacity="0" ry="7.423099" rx="7.398055" cy="46.189193" cx="17.087412" stroke-opacity="null" />
      <line stroke-linecap="null" stroke-linejoin="null" y2="18.970877" x2="17.08741" y1="38.707694" x1="17.08741" fill-opacity="0" stroke-opacity="null" />
    </g>
    <g transform="rotate(-37.91632080078125 46.85710906982424,36.27545928955079) ">
      <ellipse transform="rotate(0.1952008455991745 46.85711288452411,46.16048812866201) " fill-opacity="0" ry="7.423099" rx="7.398055" cy="46.160489" cx="46.857111" stroke-opacity="null" />
      <line stroke-linecap="null" stroke-linejoin="null" y2="18.942173" x2="46.85711" y1="38.67899" x1="46.85711" fill-opacity="0" stroke-opacity="null" />
    </g>
  </symbol>

  <symbol xmlns="http://www.w3.org/2000/svg" viewBox="0 0 64 64" id="mutual_induction">
    <ellipse cx="50" cy="11.7" rx="7.4" ry="7.4" />
    <ellipse transform="matrix(0.6124 -0.7905 0.7905 0.6124 -34.2823 32.0826)" cx="15.6" cy="51" rx="7.4" ry="7.4" />
    <ellipse transform="matrix(0.791 -0.6118 0.6118 0.791 -20.7503 41.2444)" cx="50" cy="51" rx="7.4" ry="7.4" />
    <ellipse cx="15.6" cy="11.7" rx="7.4" ry="7.4" />
    <line x1="15.6" y1="19.1" x2="15.6" y2="43.6" />
    <line x1="50" y1="19.1" x2="50" y2="43.6" />
    <line x1="33.1" y1="25" x2="33.1" y2="25" />
    <path d="M20.1,31.6" />
    <path d="M45.5,31.7" />
    <ellipse cx="33.2" cy="30.3" rx="25.3" ry="4.3" />
    <polygon points="32.6,25.1 34.4,24.2 34.2,26 33.9,27.8 32.4,26.9 30.8,26 " />
    <polygon points="32.9,35.6 31.1,36.4 31.4,34.7 31.7,32.9 33.2,33.8 34.7,34.8 " />
  </symbol>

  <symbol xmlns="http://www.w3.org/2000/svg" viewBox="0 0 64 64" id="thunder">
    <path d="M41 6L13 34h14.187L23 58l27.998-29.999H37L41 6z"
          stroke-miterlimit="10" data-name="layer1"
          stroke-linejoin="round" stroke-linecap="round">
    </path>
  </symbol>

  <symbol xmlns="http://www.w3.org/2000/svg" viewBox="0 0 64 64" id="adv">
    <path data-name="layer1"
          d="M54 12h8v44H42c-6 0-10 2-10 3.8" stroke-miterlimit="10"
          stroke-linejoin="round" stroke-linecap="round"></path>
    <path data-name="layer2" d="M32 16c0-3.6 4-12 12.6-12H54v46H43.9C37.8 50 32 54.2 32 60"
          stroke-miterlimit="10" stroke-linejoin="round"
          stroke-linecap="round"></path>
    <path data-name="layer1" d="M32 16c0-2-4-4-14-4H2v44h20c6 0 10 2 10 3.8z"
          stroke-miterlimit="10" stroke-linejoin="round"
          stroke-linecap="round"></path>
  </symbol>

  <symbol xmlns="http://www.w3.org/2000/svg" viewBox="0 0 64 64" id="contact">
    <path data-name="layer2"
          stroke-miterlimit="10" d="M2 12l30 27.4L62 12"
          stroke-linejoin="round" stroke-linecap="round"></path>
    <path data-name="layer1" stroke-miterlimit="10"
          d="M2 12h60v40H2z" stroke-linejoin="round" stroke-linecap="round"></path>
  </symbol>

  <symbol xmlns="http://www.w3.org/2000/svg" viewBox="0 0 64 64" id="upload">
    <path d="M31 48V3M16 20L31 3l15 16"
          stroke-miterlimit="10" stroke-linecap="round"
          data-name="layer2" stroke-linejoin="round"></path>
    <path d="M8 46v16h46V46" stroke-miterlimit="10"
          stroke-linecap="round" data-name="layer1"
          stroke-linejoin="round"></path>
  </symbol>

  <symbol xmlns="http://www.w3.org/2000/svg" viewBox="0 0 64 64" id="download">
    <path transform="rotate(-180 31,25.499999999999996) " stroke-linejoin="round" stroke-linecap="round" stroke-miterlimit="10"
          d="m31,48l0,-45m-15,17l15,-17l15,16" />
    <path stroke-linejoin="round" stroke-linecap="round" stroke-miterlimit="10" d="m8,46l0,16l46,0l0,-16" />
  </symbol>

  <symbol xmlns="http://www.w3.org/2000/svg" viewBox="0 0 64 64" id="CalcAll">
    <path stroke-linecap="round" stroke-linejoin="round" stroke-miterlimit="10" d="m24.112887,5.737533l-20.16701,28l10.218192,0l-3.015688,24l20.16557,-29.999l-10.082065,0l2.881001,-22.001z" />
    <path stroke-linecap="round" stroke-linejoin="round" stroke-miterlimit="10" d="m52.853059,5.737532l-20.167011,28l10.218192,0l-3.015688,24l20.16557,-29.999l-10.082065,0l2.881002,-22.001z" />
  </symbol>
    <!--колокольчик-->
  <symbol xmlns="http://www.w3.org/2000/svg" viewBox="0 0 512 512" id="bell">
    <path stroke-linecap="round" stroke-linejoin="round" stroke-miterlimit="10" fill="currentColor" d="m467.8,431.9l-36.7,-61.1c-16.9,-28.2 -25.8,-60.4 -25.8,-93.3l0,-53.5c0,-82.3 -67,-149.3 -149.3,-149.3s-149.3,67 -149.3,149.3l0,53.5c0,32.9 -8.9,65.1 -25.8,93.3l-36.7,61.1c-2,3.3 -2,7.4 -0.1,10.7c1.9,3.3 5.5,5.4 9.3,5.4l405.3,0c3.8,0 7.4,-2.1 9.3,-5.4c1.8,-3.3 1.8,-7.5 -0.2,-10.7zm-395.6,-5.2l26.9,-44.9c18.9,-31.5 28.9,-67.6 28.9,-104.3l0,-53.5c0,-70.6 57.4,-128 128,-128s128,57.4 128,128l0,53.5c0,36.7 10,72.8 28.9,104.3l27,44.9l-367.7,0l0,0z"/>
    <path stroke-linecap="round" stroke-linejoin="round" stroke-miterlimit="10" fill="currentColor" d="m256,0c-23.5,0 -42.7,19.1 -42.7,42.7l0,42.7c0,5.9 4.8,10.7 10.7,10.7s10.7,-4.8 10.7,-10.7l0,-42.7c0,-11.8 9.6,-21.3 21.3,-21.3s21.3,9.6 21.3,21.3l0,42.7c0,5.9 4.8,10.7 10.7,10.7s10.7,-4.8 10.7,-10.7l0,-42.7c0,-23.6 -19.2,-42.7 -42.7,-42.7z"/>
    <path stroke-linecap="round" stroke-linejoin="round" stroke-miterlimit="10" fill="currentColor" d="m302.2,431.9c-3,-5.1 -9.5,-6.7 -14.6,-3.8c-5.1,3 -6.8,9.5 -3.8,14.6c2.8,4.7 4.3,10.4 4.3,15.9c0,17.6 -14.4,32 -32,32s-32,-14.4 -32,-32c0,-5.6 1.5,-11.2 4.3,-15.9c3,-5.1 1.3,-11.6 -3.8,-14.6c-5.1,-2.9 -11.6,-1.3 -14.6,3.8c-4.7,8.1 -7.2,17.3 -7.2,26.7c0,29.4 23.9,53.3 53.3,53.3s53.3,-23.9 53.4,-53.3c-0.1,-9.4 -2.6,-18.6 -7.3,-26.7z"/>
  </symbol>

  <symbol xmlns="http://www.w3.org/2000/svg" viewBox="0 0 512 512" id="bell_content">
    <!--bell content-->
    <path stroke-linecap="round" stroke-linejoin="round" stroke-miterlimit="10" fill="currentColor" d="m467.8,431.9l-36.7,-61.1c-16.9,-28.2 -25.8,-60.4 -25.8,-93.3l0,-53.5c0,-82.3 -67,-149.3 -149.3,-149.3s-149.3,67 -149.3,149.3l0,53.5c0,32.9 -8.9,65.1 -25.8,93.3l-36.7,61.1c-2,3.3 -2,7.4 -0.1,10.7c1.9,3.3 5.5,5.4 9.3,5.4l405.3,0c3.8,0 7.4,-2.1 9.3,-5.4c1.8,-3.3 1.8,-7.5 -0.2,-10.7zm-395.6,-5.2l26.9,-44.9c18.9,-31.5 28.9,-67.6 28.9,-104.3l0,-53.5c0,-70.6 57.4,-128 128,-128s128,57.4 128,128l0,53.5c0,36.7 10,72.8 28.9,104.3l27,44.9l-367.7,0l0,0z"/>
    <path stroke-linecap="round" stroke-linejoin="round" stroke-miterlimit="10" fill="currentColor" d="m256,0c-23.5,0 -42.7,19.1 -42.7,42.7l0,42.7c0,5.9 4.8,10.7 10.7,10.7s10.7,-4.8 10.7,-10.7l0,-42.7c0,-11.8 9.6,-21.3 21.3,-21.3s21.3,9.6 21.3,21.3l0,42.7c0,5.9 4.8,10.7 10.7,10.7s10.7,-4.8 10.7,-10.7l0,-42.7c0,-23.6 -19.2,-42.7 -42.7,-42.7z"/>
    <path stroke-linecap="round" stroke-linejoin="round" stroke-miterlimit="10" fill="currentColor" d="m302.2,431.9c-3,-5.1 -9.5,-6.7 -14.6,-3.8c-5.1,3 -6.8,9.5 -3.8,14.6c2.8,4.7 4.3,10.4 4.3,15.9c0,17.6 -14.4,32 -32,32s-32,-14.4 -32,-32c0,-5.6 1.5,-11.2 4.3,-15.9c3,-5.1 1.3,-11.6 -3.8,-14.6c-5.1,-2.9 -11.6,-1.3 -14.6,3.8c-4.7,8.1 -7.2,17.3 -7.2,26.7c0,29.4 23.9,53.3 53.3,53.3s53.3,-23.9 53.4,-53.3c-0.1,-9.4 -2.6,-18.6 -7.3,-26.7z"/>
    <circle r="65.5" cy="72.299873" cx="443.927708" fill="#79ec56"/>
  </symbol>

  <symbol xmlns="http://www.w3.org/2000/svg" viewBox="0 0 64 64" id="IEEE_14">
    <path d="M11.5,5.4V27H8.7V5.4H11.5z" />
    <path d="M27.5,16.9h-8.4v7.8h9.3V27H16.4V5.4h11.7v2.3h-8.9v6.8h8.4V16.9z" />
    <path d="M43.3,16.9h-8.4v7.8h9.3V27H32.1V5.4h11.7v2.3h-8.9v6.8h8.4V16.9z" />
    <path d="M59,16.9h-8.4v7.8H60V27H47.9V5.4h11.7v2.3h-8.9v6.8H59V16.9z" />
    <path d="M23,38.4L23,38.4l-3.7,2l-0.5-2.1l4.5-2.4h2.4v20.8H23V38.4z" />
    <path d="M42,56.6v-5.7h-9.7v-1.8l9.3-13.3h3v12.9h2.9v2.2h-2.9v5.7H42z M42,48.7v-6.9c0-1.1,0-2.2,0.1-3.3H42
		        c-0.6,1.2-1.2,2.1-1.7,3.1l-5.1,7.1v0.1H42z" />
  </symbol>

  <symbol id="russia" xmlns="http://www.w3.org/2000/svg" xmlns:xlink="http://www.w3.org/1999/xlink" x="0px" y="0px"
       viewBox="0 0 512 512" style="enable-background:new 0 0 512 512;" xml:space="preserve">
        <circle style="fill:#F0F0F0;" cx="256" cy="256" r="256" />
        <path style="fill:#0052B4;" d="M496.077,345.043C506.368,317.31,512,287.314,512,256s-5.632-61.31-15.923-89.043H15.923
	        C5.633,194.69,0,224.686,0,256s5.633,61.31,15.923,89.043L256,367.304L496.077,345.043z" />
        <path style="fill:#D80027;" d="M256,512c110.071,0,203.906-69.472,240.077-166.957H15.923C52.094,442.528,145.929,512,256,512z" />
    </symbol>

  <symbol id="USA" xmlns="http://www.w3.org/2000/svg" xmlns:xlink="http://www.w3.org/1999/xlink" x="0px" y="0px"
       viewBox="0 0 512 512" style="enable-background:new 0 0 512 512;" xml:space="preserve">
        <circle style="fill:#F0F0F0;" cx="256" cy="256" r="256" />
	        <path style="fill:#0052B4;" d="M52.92,100.142c-20.109,26.163-35.272,56.318-44.101,89.077h133.178L52.92,100.142z" />
	        <path style="fill:#0052B4;" d="M503.181,189.219c-8.829-32.758-23.993-62.913-44.101-89.076l-89.075,89.076H503.181z" />
	        <path style="fill:#0052B4;" d="M8.819,322.784c8.83,32.758,23.993,62.913,44.101,89.075l89.074-89.075L8.819,322.784L8.819,322.784
		        z" />
	        <path style="fill:#0052B4;" d="M411.858,52.921c-26.163-20.109-56.317-35.272-89.076-44.102v133.177L411.858,52.921z" />
	        <path style="fill:#0052B4;" d="M100.142,459.079c26.163,20.109,56.318,35.272,89.076,44.102V370.005L100.142,459.079z" />
	        <path style="fill:#0052B4;" d="M189.217,8.819c-32.758,8.83-62.913,23.993-89.075,44.101l89.075,89.075V8.819z" />
	        <path style="fill:#D80027;" d="M509.833,222.609h-220.44h-0.001V2.167C278.461,0.744,267.317,0,256,0
		        c-11.319,0-22.461,0.744-33.391,2.167v220.44v0.001H2.167C0.744,233.539,0,244.683,0,256c0,11.319,0.744,22.461,2.167,33.391
		        h220.44h0.001v220.442C233.539,511.256,244.681,512,256,512c11.317,0,22.461-0.743,33.391-2.167v-220.44v-0.001h220.442
		        C511.256,278.461,512,267.319,512,256C512,244.683,511.256,233.539,509.833,222.609z" />
	        <path style="fill:#D80027;" d="M322.783,322.784L322.783,322.784L437.019,437.02c5.254-5.252,10.266-10.743,15.048-16.435
		        l-97.802-97.802h-31.482V322.784z" />
	        <path style="fill:#D80027;" d="M189.217,322.784h-0.002L74.98,437.019c5.252,5.254,10.743,10.266,16.435,15.048l97.802-97.804
		        V322.784z" />
	        <path style="fill:#D80027;" d="M189.217,189.219v-0.002L74.981,74.98c-5.254,5.252-10.266,10.743-15.048,16.435l97.803,97.803
		        H189.217z" />
	        <path style="fill:#D80027;" d="M322.783,189.219L322.783,189.219L437.02,74.981c-5.252-5.254-10.743-10.266-16.435-15.047
		        l-97.802,97.803V189.219z" />
    </symbol>

  <!--ТАБЛИЦЫ-->
  <!--ADD-->
  <symbol id="Add" viewBox="0 0 64 64" xmlns="http://www.w3.org/2000/svg"  aria-labelledby="title"
          aria-describedby="desc" xmlns:xlink="http://www.w3.org/1999/xlink">
      <path transform="rotate(44.53133773803711 30.99900054931642,31.000999450683587) " stroke-linecap="round" stroke-linejoin="round" d="m41.999,20.002l-22,22m22,0l-21.999,-22.002" stroke-miterlimit="10"/>
  </symbol>
  <!--DELETE-->
  <symbol id="Delete" xmlns="http://www.w3.org/2000/svg"  viewBox="0 0 64 64" aria-labelledby="title"
          aria-describedby="desc" xmlns:xlink="http://www.w3.org/1999/xlink">
      <path stroke-linecap="round" stroke-linejoin="round" d="m42.999999,21.001001l-22,22m22,0l-21.999,-22.002" stroke-miterlimit="10" />
  </symbol>
</svg>