<svg width="0" height="0" display="none">
  <symbol xmlns="http://www.w3.org/2000/svg" viewBox="0 0 64 64" id="close">
    <path data-name="layer1"
          stroke-miterlimit="10" d="M41.999 20.002l-22 22m22 0L20 20"
          stroke-linejoin="round" stroke-linecap="round"></path>
  </symbol>

  <symbol xmlns="http://www.w3.org/2000/svg" viewBox="0 0 64 64" id="home">
    <path data-name="layer1"
          d="M54 26.267l7.555 7.3a.25.25 0 0 1-.174.43H54V62H40V44H24v18H10V34H2.618a.25.25 0 0 1-.174-.43L32 5l13 12.567V12h9z"
          stroke-linecap="round" stroke-miterlimit="10"
          stroke-linejoin="round"></path>
  </symbol>
  <symbol xmlns="http://www.w3.org/2000/svg" viewBox="0 0 64 64" id="node">
    <ellipse fill-opacity="0" ry="18" rx="18" cy="32" cx="32" stroke-opacity="null" />
  </symbol>

  <symbol xmlns="http://www.w3.org/2000/svg" viewBox="0 0 64 64" id="branch">
    <ellipse fill-opacity="0" ry="7.423099" rx="7.398055" cy="16.854149" cx="31.999999" stroke-opacity="null" />
    <g transform="rotate(37.56938934326172 17.08741188049316,36.304168701171875) ">
      <ellipse transform="rotate(0.1952008455991745 17.087413787840156,46.189189910888494) " fill-opacity="0" ry="7.423099" rx="7.398055" cy="46.189193" cx="17.087412" stroke-opacity="null" />
      <line stroke-linecap="null" stroke-linejoin="null" y2="18.970877" x2="17.08741" y1="38.707694" x1="17.08741" fill-opacity="0" stroke-opacity="null" />
    </g>
    <g transform="rotate(-37.91632080078125 46.85710906982424,36.27545928955079) ">
      <ellipse transform="rotate(0.1952008455991745 46.85711288452411,46.16048812866201) " fill-opacity="0" ry="7.423099" rx="7.398055" cy="46.160489" cx="46.857111" stroke-opacity="null" />
      <line stroke-linecap="null" stroke-linejoin="null" y2="18.942173" x2="46.85711" y1="38.67899" x1="46.85711" fill-opacity="0" stroke-opacity="null" />
    </g>
  </symbol>

  <symbol xmlns="http://www.w3.org/2000/svg" viewBox="0 0 64 64" id="mutual_induction">
    <ellipse cx="50" cy="11.7" rx="7.4" ry="7.4" />
    <ellipse transform="matrix(0.6124 -0.7905 0.7905 0.6124 -34.2823 32.0826)" cx="15.6" cy="51" rx="7.4" ry="7.4" />
    <ellipse transform="matrix(0.791 -0.6118 0.6118 0.791 -20.7503 41.2444)" cx="50" cy="51" rx="7.4" ry="7.4" />
    <ellipse cx="15.6" cy="11.7" rx="7.4" ry="7.4" />
    <line x1="15.6" y1="19.1" x2="15.6" y2="43.6" />
    <line x1="50" y1="19.1" x2="50" y2="43.6" />
    <line x1="33.1" y1="25" x2="33.1" y2="25" />
    <path d="M20.1,31.6" />
    <path d="M45.5,31.7" />
    <ellipse cx="33.2" cy="30.3" rx="25.3" ry="4.3" />
    <polygon points="32.6,25.1 34.4,24.2 34.2,26 33.9,27.8 32.4,26.9 30.8,26 " />
    <polygon points="32.9,35.6 31.1,36.4 31.4,34.7 31.7,32.9 33.2,33.8 34.7,34.8 " />
  </symbol>

  <symbol xmlns="http://www.w3.org/2000/svg" viewBox="0 0 64 64" id="thunder">
    <path d="M41 6L13 34h14.187L23 58l27.998-29.999H37L41 6z"
          stroke-miterlimit="10" data-name="layer1"
          stroke-linejoin="round" stroke-linecap="round">
    </path>
  </symbol>

  <symbol xmlns="http://www.w3.org/2000/svg" viewBox="0 0 64 64" id="adv">
    <path data-name="layer1"
          d="M54 12h8v44H42c-6 0-10 2-10 3.8" stroke-miterlimit="10"
          stroke-linejoin="round" stroke-linecap="round"></path>
    <path data-name="layer2" d="M32 16c0-3.6 4-12 12.6-12H54v46H43.9C37.8 50 32 54.2 32 60"
          stroke-miterlimit="10" stroke-linejoin="round"
          stroke-linecap="round"></path>
    <path data-name="layer1" d="M32 16c0-2-4-4-14-4H2v44h20c6 0 10 2 10 3.8z"
          stroke-miterlimit="10" stroke-linejoin="round"
          stroke-linecap="round"></path>
  </symbol>

  <symbol xmlns="http://www.w3.org/2000/svg" viewBox="0 0 64 64" id="contact">
    <path data-name="layer2"
          stroke-miterlimit="10" d="M2 12l30 27.4L62 12"
          stroke-linejoin="round" stroke-linecap="round"></path>
    <path data-name="layer1" stroke-miterlimit="10"
          d="M2 12h60v40H2z" stroke-linejoin="round" stroke-linecap="round"></path>
  </symbol>

  <symbol xmlns="http://www.w3.org/2000/svg" viewBox="0 0 64 64" id="upload">
    <path d="M31 48V3M16 20L31 3l15 16"
          stroke-miterlimit="10" stroke-linecap="round"
          data-name="layer2" stroke-linejoin="round"></path>
    <path d="M8 46v16h46V46" stroke-miterlimit="10"
          stroke-linecap="round" data-name="layer1"
          stroke-linejoin="round"></path>
  </symbol>

  <symbol xmlns="http://www.w3.org/2000/svg" viewBox="0 0 64 64" id="download">
    <path transform="rotate(-180 31,25.499999999999996) " stroke-linejoin="round" stroke-linecap="round" stroke-miterlimit="10" stroke-width="2" d="m31,48l0,-45m-15,17l15,-17l15,16" />
    <path stroke-linejoin="round" stroke-linecap="round" stroke-miterlimit="10" d="m8,46l0,16l46,0l0,-16" />
  </symbol>

  <symbol xmlns="http://www.w3.org/2000/svg" viewBox="0 0 64 64" id="CalcAll">
    <path stroke-linecap="round" stroke-linejoin="round" stroke-miterlimit="10" d="m24.112887,5.737533l-20.16701,28l10.218192,0l-3.015688,24l20.16557,-29.999l-10.082065,0l2.881001,-22.001z" />
    <path stroke-linecap="round" stroke-linejoin="round" stroke-miterlimit="10" d="m52.853059,5.737532l-20.167011,28l10.218192,0l-3.015688,24l20.16557,-29.999l-10.082065,0l2.881002,-22.001z" />
  </symbol>

  <symbol xmlns="http://www.w3.org/2000/svg" viewBox="0 0 64 64" id="mes">
    <!--колокольчик-->
    <path d="M467.819,431.851l-36.651-61.056c-16.896-28.181-25.835-60.437-25.835-93.312V224
			c0-82.325-67.008-149.333-149.333-149.333S106.667,141.675,106.667,224v53.483c0,32.875-8.939,65.131-25.835,93.312
			l-36.651,61.056c-1.984,3.285-2.027,7.403-0.149,10.731c1.899,3.349,5.461,5.419,9.301,5.419h405.333
			c3.84,0,7.403-2.069,9.301-5.419C469.845,439.253,469.803,435.136,467.819,431.851z M72.171,426.667l26.944-44.907
			C118.016,350.272,128,314.219,128,277.483V224c0-70.592,57.408-128,128-128s128,57.408,128,128v53.483
			c0,36.736,9.984,72.789,28.864,104.277l26.965,44.907H72.171z" />
    <path d="M256,0c-23.531,0-42.667,19.136-42.667,42.667v42.667C213.333,91.221,218.112,96,224,96s10.667-4.779,10.667-10.667
			V42.667c0-11.776,9.557-21.333,21.333-21.333s21.333,9.557,21.333,21.333v42.667C277.333,91.221,282.112,96,288,96
			s10.667-4.779,10.667-10.667V42.667C298.667,19.136,279.531,0,256,0z" />
    <path d="M302.165,431.936c-3.008-5.077-9.515-6.741-14.613-3.819c-5.099,2.987-6.805,9.536-3.819,14.613
			c2.773,4.715,4.288,10.368,4.288,15.936c0,17.643-14.357,32-32,32c-17.643,0-32-14.357-32-32c0-5.568,1.515-11.221,4.288-15.936
			c2.965-5.099,1.259-11.627-3.819-14.613c-5.141-2.923-11.627-1.259-14.613,3.819c-4.715,8.064-7.211,17.301-7.211,26.731
			C202.667,488.085,226.581,512,256,512s53.333-23.915,53.376-53.333C309.376,449.237,306.88,440,302.165,431.936z" />
  </symbol>

  <symbol xmlns="http://www.w3.org/2000/svg" viewBox="0 0 64 64" id="IEEE_14">
    <path d="M11.5,5.4V27H8.7V5.4H11.5z" />
    <path d="M27.5,16.9h-8.4v7.8h9.3V27H16.4V5.4h11.7v2.3h-8.9v6.8h8.4V16.9z" />
    <path d="M43.3,16.9h-8.4v7.8h9.3V27H32.1V5.4h11.7v2.3h-8.9v6.8h8.4V16.9z" />
    <path d="M59,16.9h-8.4v7.8H60V27H47.9V5.4h11.7v2.3h-8.9v6.8H59V16.9z" />
    <path d="M23,38.4L23,38.4l-3.7,2l-0.5-2.1l4.5-2.4h2.4v20.8H23V38.4z" />
    <path d="M42,56.6v-5.7h-9.7v-1.8l9.3-13.3h3v12.9h2.9v2.2h-2.9v5.7H42z M42,48.7v-6.9c0-1.1,0-2.2,0.1-3.3H42
		        c-0.6,1.2-1.2,2.1-1.7,3.1l-5.1,7.1v0.1H42z" />
  </symbol>

  <symbol id="russia" xmlns="http://www.w3.org/2000/svg" xmlns:xlink="http://www.w3.org/1999/xlink" x="0px" y="0px"
       viewBox="0 0 512 512" style="enable-background:new 0 0 512 512;" xml:space="preserve">
        <circle style="fill:#F0F0F0;" cx="256" cy="256" r="256" />
        <path style="fill:#0052B4;" d="M496.077,345.043C506.368,317.31,512,287.314,512,256s-5.632-61.31-15.923-89.043H15.923
	        C5.633,194.69,0,224.686,0,256s5.633,61.31,15.923,89.043L256,367.304L496.077,345.043z" />
        <path style="fill:#D80027;" d="M256,512c110.071,0,203.906-69.472,240.077-166.957H15.923C52.094,442.528,145.929,512,256,512z" />
    </symbol>

  <symbol id="USA" xmlns="http://www.w3.org/2000/svg" xmlns:xlink="http://www.w3.org/1999/xlink" x="0px" y="0px"
       viewBox="0 0 512 512" style="enable-background:new 0 0 512 512;" xml:space="preserve">
        <circle style="fill:#F0F0F0;" cx="256" cy="256" r="256" />
        <g>
	        <path style="fill:#0052B4;" d="M52.92,100.142c-20.109,26.163-35.272,56.318-44.101,89.077h133.178L52.92,100.142z" />
	        <path style="fill:#0052B4;" d="M503.181,189.219c-8.829-32.758-23.993-62.913-44.101-89.076l-89.075,89.076H503.181z" />
	        <path style="fill:#0052B4;" d="M8.819,322.784c8.83,32.758,23.993,62.913,44.101,89.075l89.074-89.075L8.819,322.784L8.819,322.784
		        z" />
	        <path style="fill:#0052B4;" d="M411.858,52.921c-26.163-20.109-56.317-35.272-89.076-44.102v133.177L411.858,52.921z" />
	        <path style="fill:#0052B4;" d="M100.142,459.079c26.163,20.109,56.318,35.272,89.076,44.102V370.005L100.142,459.079z" />
	        <path style="fill:#0052B4;" d="M189.217,8.819c-32.758,8.83-62.913,23.993-89.075,44.101l89.075,89.075V8.819z" />
	        <path style="fill:#0052B4;" d="M322.783,503.181c32.758-8.83,62.913-23.993,89.075-44.101l-89.075-89.075V503.181z" />
	        <path style="fill:#0052B4;" d="M370.005,322.784l89.075,89.076c20.108-26.162,35.272-56.318,44.101-89.076H370.005z" />
        </g>
        <g>
	        <path style="fill:#D80027;" d="M509.833,222.609h-220.44h-0.001V2.167C278.461,0.744,267.317,0,256,0
		        c-11.319,0-22.461,0.744-33.391,2.167v220.44v0.001H2.167C0.744,233.539,0,244.683,0,256c0,11.319,0.744,22.461,2.167,33.391
		        h220.44h0.001v220.442C233.539,511.256,244.681,512,256,512c11.317,0,22.461-0.743,33.391-2.167v-220.44v-0.001h220.442
		        C511.256,278.461,512,267.319,512,256C512,244.683,511.256,233.539,509.833,222.609z" />
	        <path style="fill:#D80027;" d="M322.783,322.784L322.783,322.784L437.019,437.02c5.254-5.252,10.266-10.743,15.048-16.435
		        l-97.802-97.802h-31.482V322.784z" />
	        <path style="fill:#D80027;" d="M189.217,322.784h-0.002L74.98,437.019c5.252,5.254,10.743,10.266,16.435,15.048l97.802-97.804
		        V322.784z" />
	        <path style="fill:#D80027;" d="M189.217,189.219v-0.002L74.981,74.98c-5.254,5.252-10.266,10.743-15.048,16.435l97.803,97.803
		        H189.217z" />
	        <path style="fill:#D80027;" d="M322.783,189.219L322.783,189.219L437.02,74.981c-5.252-5.254-10.743-10.266-16.435-15.047
		        l-97.802,97.803V189.219z" />
        </g>
    </symbol>

  <!--ТАБЛИЦЫ-->
  <!--ADD-->
  <symbol viewBox="0 0 64 64" xmlns="http://www.w3.org/2000/svg" id="Add" aria-labelledby="title"
          aria-describedby="desc" xmlns:xlink="http://www.w3.org/1999/xlink">
    <g>
      <title>Layer 1</title>
      <path transform="rotate(44.53133773803711 30.99900054931642,31.000999450683587) " id="svg_1" stroke-linecap="round" stroke-linejoin="round" d="m41.999,20.002l-22,22m22,0l-21.999,-22.002" stroke-width="2" stroke-miterlimit="10" stroke="#202020" fill="none" />
    </g>
  </symbol>
  <!--DELETE-->
  <symbol xmlns="http://www.w3.org/2000/svg" id="Delete" viewBox="0 0 64 64" aria-labelledby="title"
          aria-describedby="desc" xmlns:xlink="http://www.w3.org/1999/xlink">
    <g>
      <title>Layer 1</title>
      <path id="svg_1" stroke-linecap="round" stroke-linejoin="round" d="m42.999999,21.001001l-22,22m22,0l-21.999,-22.002" stroke-width="2" stroke-miterlimit="10" stroke="#ff0000" fill="none" />
    </g>
  </symbol>
</svg>