<svg xmlns="http://www.w3.org/2000/svg" viewBox="0 0 397.64 89.75"><defs><style>.cls-1{fill:none;}.cls-1,.cls-3{stroke:#274685;}.cls-1,.cls-2,.cls-3,.cls-5{stroke-miterlimit:10;}.cls-1,.cls-2,.cls-3{stroke-width:4.09px;}.cls-2,.cls-5{fill:#ffd645;stroke:#5d9831;}.cls-3,.cls-4{fill:#274685;}.cls-5{stroke-width:2px;}</style></defs><title>2Ресурс 1</title><g id="Слой_2" data-name="Слой 2"><g id="Слой_1-2" data-name="Слой 1"><path class="cls-1" d="M2,42c0-8.42,27.36-15.25,61.11-15.25S124.27,33.61,124.27,42"/><path class="cls-2" d="M63.9,87.42s75-41.11,0-85C-10.15,46.28,63.9,87.42,63.9,87.42Z"/><path class="cls-1" d="M124.27,42c0,8.42-27.36,15.25-61.11,15.25S2,50.45,2,42"/><circle class="cls-3" cx="14.97" cy="51.17" r="3.48"/><path class="cls-4" d="M157.94,74.33h38.14V87.42H140.88v-85h17.05Z"/><rect class="cls-4" x="206.94" y="27.78" width="17.05" height="59.63"/><path class="cls-4" d="M283.22,65h.35L305.36,2.38h22.25v85H310.56V29.36l-.35-.06-21,58.11H277.61l-21-58.35-.35.06V87.42H239.18v-85h22.37Z"/><path class="cls-4" d="M391.68,50h-31.6v24.3h37.55V87.42H343v-85h54.43V15.52H360.08V36.89h31.6Z"/><path class="cls-5" d="M215.42,23.18s18.36-10.06,0-20.81C197.3,13.12,215.42,23.18,215.42,23.18Z"/></g></g></svg>