<?xml version="1.0" encoding="utf-8"?>
<!-- Generator: Adobe Illustrator 21.0.2, SVG Export Plug-In . SVG Version: 6.00 Build 0)  -->
<svg version="1.1" id="Слой_1" xmlns="http://www.w3.org/2000/svg" xmlns:xlink="http://www.w3.org/1999/xlink" x="0px" y="0px"
	 viewBox="0 0 64 64" style="enable-background:new 0 0 64 64;" xml:space="preserve">
<style type="text/css">
	.st0{fill:none;}
	.st1{fill:#602B2B;fill-opacity:0;stroke:#202020;stroke-width:2;}
	.st2{fill:none;stroke:#202020;stroke-width:2;}
	.st3{fill:none;stroke:#274685;stroke-width:0.8532;stroke-miterlimit:10;}
	.st4{fill:none;stroke:#1D1D1B;stroke-width:0.75;stroke-miterlimit:10;}
	.st5{fill:none;stroke:#1D1D1B;stroke-miterlimit:10;}
	.st6{fill:#1D1E1B;stroke:#1D1D1B;stroke-miterlimit:10;}
</style>
<title>Branch</title>
<g>
	<title>background</title>
	<rect id="canvas_background" x="-1" y="-3.2" class="st0" width="582" height="402"/>
</g>
<ellipse id="svg_6" class="st1" cx="50" cy="11.7" rx="7.4" ry="7.4"/>
<ellipse id="svg_13" transform="matrix(0.6124 -0.7905 0.7905 0.6124 -34.2823 32.0826)" class="st1" cx="15.6" cy="51" rx="7.4" ry="7.4"/>
<ellipse id="svg_19" transform="matrix(0.791 -0.6118 0.6118 0.791 -20.7503 41.2444)" class="st1" cx="50" cy="51" rx="7.4" ry="7.4"/>
<ellipse id="svg_6_1_" class="st1" cx="15.6" cy="11.7" rx="7.4" ry="7.4"/>
<line class="st2" x1="15.6" y1="19.1" x2="15.6" y2="43.6"/>
<line class="st2" x1="50" y1="19.1" x2="50" y2="43.6"/>
<line class="st3" x1="33.1" y1="25" x2="33.1" y2="25"/>
<path class="st4" d="M20.1,31.6"/>
<path class="st4" d="M45.5,31.7"/>
<ellipse class="st5" cx="33.2" cy="30.3" rx="25.3" ry="4.3"/>
<polygon class="st6" points="32.6,25.1 34.4,24.2 34.2,26 33.9,27.8 32.4,26.9 30.8,26 "/>
<polygon class="st6" points="32.9,35.6 31.1,36.4 31.4,34.7 31.7,32.9 33.2,33.8 34.7,34.8 "/>
</svg>
