<?xml version="1.0" encoding="utf-8"?>
<!-- Generator: Adobe Illustrator 21.0.2, SVG Export Plug-In . SVG Version: 6.00 Build 0)  -->
<svg version="1.1" id="Слой_1" xmlns="http://www.w3.org/2000/svg" xmlns:xlink="http://www.w3.org/1999/xlink" x="0px" y="0px"
	 viewBox="0 0 64 64" style="enable-background:new 0 0 64 64;" xml:space="preserve">
<style type="text/css">
	.st0{fill:none;}
	.st1{fill:#602B2B;fill-opacity:0;stroke:#202020;stroke-width:2;}
	.st2{fill:none;stroke:#202020;stroke-width:2;}
	.st3{fill:none;stroke:#1D1D1B;stroke-miterlimit:10;}
	.st4{fill:none;stroke:#274685;stroke-width:0.8532;stroke-miterlimit:10;}
	.st5{fill:none;stroke:#1D1D1B;stroke-width:0.75;stroke-miterlimit:10;}
	.st6{fill:#1D1D1B;stroke:#1D1D1B;stroke-width:0.5093;stroke-miterlimit:10;}
</style>
<title>Branch</title>
<g>
	<title>background</title>
	<rect id="canvas_background" x="-1" y="-3.2" class="st0" width="582" height="402"/>
</g>
<ellipse id="svg_6" class="st1" cx="50" cy="11.7" rx="7.4" ry="7.4"/>
<ellipse id="svg_13" transform="matrix(0.6124 -0.7905 0.7905 0.6124 -34.2746 32.1222)" class="st1" cx="15.6" cy="51" rx="7.4" ry="7.4"/>
<ellipse id="svg_19" transform="matrix(0.791 -0.6118 0.6118 0.791 -20.762 41.2532)" class="st1" cx="50" cy="51" rx="7.4" ry="7.4"/>
<ellipse id="svg_6_1_" class="st1" cx="15.6" cy="11.7" rx="7.4" ry="7.4"/>
<line class="st2" x1="15.6" y1="19.1" x2="15.6" y2="43.6"/>
<line class="st2" x1="50" y1="19.1" x2="50" y2="43.6"/>
<path class="st3" d="M20.1,31.7c0-1.8,6.2-6.1,13.2-6.1s12.3,4.4,12.3,6.1"/>
<line class="st4" x1="33.1" y1="25" x2="33.1" y2="25"/>
<path class="st5" d="M20.1,31.6"/>
<path class="st5" d="M45.5,31.7"/>
<polygon class="st6" points="19,30.3 20.2,31.1 21.3,31.9 20.1,32.5 18.8,33.2 18.9,31.8 "/>
<polygon class="st6" points="46.4,30 46.5,31.5 46.7,32.9 45.4,32.3 44.1,31.7 45.2,30.9 "/>
</svg>
